<svg id="Layer_1" data-name="Layer 1" xmlns="http://www.w3.org/2000/svg" xmlns:xlink="http://www.w3.org/1999/xlink" viewBox="0 0 671.5 600.05"><defs><style>.cls-1{fill:none;}.cls-1,.cls-2,.cls-3{stroke:#000;}.cls-1,.cls-2{stroke-miterlimit:10;stroke-width:15px;}.cls-2{stroke-linecap:round;fill: ;}.cls-3{font-size:54px;font-family:Roboto-Thin, Roboto;font-weight:200;letter-spacing:0.07em;}.cls-4{letter-spacing:0.05em;}.cls-5{letter-spacing:0.07em;}</style><linearGradient id="linear-gradient" x1="385.08" y1="344.89" x2="774.21" y2="344.89" gradientTransform="matrix(0.99, -0.01, -0.01, 0.99, -368.58, -87.5)" gradientUnits="userSpaceOnUse"><stop offset="0" stop-color="#fff"/><stop offset="1"/></linearGradient></defs><title>Logo</title><path class="cls-1" d="M1040,344.18C1040,211.53,921,104,774.19,104V584.36C921,584.36,1040,476.83,1040,344.18Z" transform="translate(-376 -96.5)"/><line class="cls-1" x1="10.42" y1="490.5" x2="8.96" y2="7.5"/><line class="cls-2" x1="12.61" y1="12.78" x2="393.81" y2="482.58"/><line class="cls-1" x1="9.69" y1="249.66" x2="204.67" y2="249.66"/><rect class="cls-1" x="7.5" y="7.5" width="391.42" height="480.36" rx="5.76"/><path class="cls-1" d="M612.32,226.73c0,67,71.82,121.41,160.41,121.41V105.32C684.14,105.32,612.32,159.68,612.32,226.73Z" transform="translate(-376 -96.5)"/><path class="cls-1" d="M934.59,466.25c0-65.23-72.14-118.11-161.13-118.11V584.36C862.45,584.36,934.59,531.48,934.59,466.25Z" transform="translate(-376 -96.5)"/><text x="-376" y="-96.5"/><text class="cls-3" transform="translate(135.18 558.43) scale(1.01 1)">Andrés And<tspan class="cls-4" x="305.59" y="0">r</tspan><tspan class="cls-5" x="326.37" y="0">ade</tspan></text></svg>